<svg width="150" height="50" viewBox="0 0 150 50" fill="none" xmlns="http://www.w3.org/2000/svg">
<rect width="150" height="49.1803" rx="10" fill="white"/>
<path d="M141.03 1.63916H8.68037C4.79243 1.63916 1.64062 4.79595 1.64062 8.69006V40.4899C1.64062 44.384 4.79243 47.5408 8.68037 47.5408H141.03C144.917 47.5408 148.069 44.384 148.069 40.4899V8.69006C148.069 4.79595 144.917 1.63916 141.03 1.63916Z" fill="black"/>
<path d="M37.4145 30.105C37.2099 30.6137 37.0167 31.1396 36.7893 31.6505C36.0448 33.3262 35.0146 34.8169 33.7941 36.1767C33.2726 36.7574 32.6666 37.2384 31.9228 37.518C31.1342 37.814 30.3392 37.7813 29.5514 37.5387C29.0065 37.3707 28.4758 37.158 27.9351 36.9744C27.187 36.7197 26.4212 36.5645 25.6255 36.6079C24.9015 36.6478 24.206 36.8186 23.5304 37.074C22.9045 37.311 22.2821 37.5529 21.6229 37.6902C20.6183 37.8987 19.7374 37.6319 18.9346 37.0327C18.1126 36.4194 17.4725 35.6331 16.8558 34.824C16.009 33.7133 15.2865 32.5293 14.7266 31.2477C14.0752 29.757 13.5935 28.2136 13.3647 26.6012C13.1097 24.8059 13.1153 23.0149 13.6837 21.2702C14.3558 19.2052 15.5998 17.6028 17.5677 16.6158C18.6213 16.0878 19.7388 15.8338 20.9167 15.9C21.684 15.9434 22.4093 16.1867 23.1297 16.4379C23.7251 16.6457 24.3254 16.84 24.92 17.0513C25.4102 17.2249 25.872 17.116 26.3388 16.9559C27.1671 16.672 27.9941 16.3817 28.8303 16.122C29.7879 15.8246 30.7641 15.7349 31.7672 15.8865C32.781 16.0387 33.743 16.3177 34.6317 16.835C35.4303 17.2996 36.0888 17.9166 36.6323 18.6922C34.4044 20.0427 33.2584 21.9903 33.4446 24.6181C33.63 27.2395 35.0978 28.9672 37.4138 30.1035L37.4145 30.105Z" fill="white"/>
<path d="M31.3258 9.0078C31.3258 9.39845 31.3549 9.78127 31.3208 10.1577C31.2015 11.4755 30.6282 12.6012 29.787 13.596C29.1725 14.3225 28.4642 14.9422 27.5981 15.3578C26.8927 15.6965 26.1503 15.8573 25.351 15.7904C25.28 15.3934 25.2984 14.9928 25.3539 14.5936C25.5507 13.1804 26.2035 11.9907 27.1697 10.9674C27.8035 10.2957 28.5778 9.82254 29.4254 9.46391C29.981 9.2291 30.5543 9.06615 31.1553 9.00922C31.2036 9.00495 31.2526 9.00922 31.3258 9.00922V9.0078Z" fill="white"/>
<path d="M44.5703 37.4078L50.4684 22.0259H52.658L58.9439 37.4078H56.6286L54.8369 32.7492H48.4152L46.7286 37.4078H44.5703ZM49.0013 31.0912H54.2081L52.6054 26.8311C52.1166 25.5367 51.7536 24.4737 51.5156 23.6411C51.3202 24.6274 51.0438 25.6065 50.6879 26.5792L49.0013 31.0912Z" fill="white"/>
<path d="M60.3281 41.679V26.2651H62.046V27.7131C62.4509 27.1467 62.9084 26.7219 63.4185 26.438C63.9286 26.1548 64.5467 26.0132 65.2728 26.0132C66.2226 26.0132 67.061 26.258 67.787 26.7475C68.5131 27.2371 69.0616 27.928 69.4317 28.8196C69.8018 29.7112 69.9873 30.6889 69.9873 31.752C69.9873 32.8919 69.7827 33.9187 69.3742 34.8316C68.9656 35.7445 68.3717 36.444 67.5931 36.93C66.8144 37.416 65.9953 37.6594 65.1364 37.6594C64.5076 37.6594 63.9436 37.5263 63.4448 37.2609C62.9454 36.9948 62.5355 36.6596 62.2136 36.2533V41.6783H60.3281V41.679ZM62.0353 31.9C62.0353 33.3338 62.3252 34.394 62.9049 35.0792C63.4846 35.7645 64.1865 36.1074 65.0106 36.1074C65.8347 36.1074 66.5665 35.7524 67.1633 35.0422C67.7607 34.3321 68.0591 33.232 68.0591 31.742C68.0591 30.252 67.7678 29.2586 67.1846 28.552C66.6013 27.8455 65.9051 27.4925 65.0945 27.4925C64.2839 27.4925 63.5805 27.8682 62.9624 28.6204C62.3444 29.3725 62.0353 30.4654 62.0353 31.8992V31.9Z" fill="white"/>
<path d="M72.2578 41.679V26.2651H73.9757V27.7131C74.3806 27.1467 74.8381 26.7219 75.3482 26.438C75.8583 26.1548 76.4764 26.0132 77.2025 26.0132C78.1523 26.0132 78.9906 26.258 79.7167 26.7475C80.4428 27.2371 80.9912 27.928 81.3614 28.8196C81.7315 29.7112 81.9169 30.6889 81.9169 31.752C81.9169 32.8919 81.7123 33.9187 81.3038 34.8316C80.8953 35.7445 80.3014 36.444 79.5228 36.93C78.7441 37.416 77.925 37.6594 77.0661 37.6594C76.4373 37.6594 75.8732 37.5263 75.3745 37.2609C74.8751 36.9948 74.4651 36.6596 74.1433 36.2533V41.6783H72.2578V41.679ZM73.9657 31.9C73.9657 33.3338 74.2556 34.394 74.8353 35.0792C75.415 35.7645 76.1169 36.1074 76.941 36.1074C77.7651 36.1074 78.4969 35.7524 79.0937 35.0422C79.6911 34.3321 79.9895 33.232 79.9895 31.742C79.9895 30.252 79.6982 29.2586 79.115 28.552C78.5317 27.8455 77.8355 27.4925 77.0249 27.4925C76.2142 27.4925 75.5109 27.8682 74.8928 28.6204C74.2747 29.3725 73.9657 30.4654 73.9657 31.8992V31.9Z" fill="white"/>
<path d="M89.7038 32.4661L91.6213 32.2981C91.7122 33.0673 91.9233 33.6992 92.255 34.1923C92.5868 34.6854 93.1019 35.0839 93.8002 35.3885C94.4986 35.693 95.2843 35.8446 96.1575 35.8446C96.9326 35.8446 97.6174 35.7293 98.2106 35.498C98.8039 35.2668 99.2457 34.9508 99.5356 34.5481C99.8255 34.1461 99.9704 33.707 99.9704 33.231C99.9704 32.755 99.8304 32.3266 99.5512 31.9665C99.272 31.6065 98.811 31.3041 98.1687 31.0586C97.7567 30.8978 96.8452 30.6473 95.4342 30.3086C94.0233 29.9692 93.0351 29.649 92.4696 29.3487C91.7364 28.9637 91.1901 28.4863 90.8299 27.9163C90.4704 27.3463 90.2907 26.7081 90.2907 26.0015C90.2907 25.2252 90.5109 24.4994 90.9507 23.8241C91.3904 23.1488 92.0334 22.6365 92.8781 22.2871C93.7235 21.937 94.6627 21.7627 95.6964 21.7627C96.8345 21.7627 97.8391 21.9463 98.7079 22.3134C99.5775 22.6806 100.246 23.2214 100.714 23.9344C101.182 24.6481 101.434 25.4557 101.469 26.358L99.52 26.5046C99.4155 25.5326 99.061 24.7975 98.4564 24.3008C97.8526 23.8042 96.9603 23.5558 95.7795 23.5558C94.5988 23.5558 93.6546 23.7814 93.0926 24.2325C92.5307 24.6837 92.2493 25.2273 92.2493 25.8642C92.2493 26.417 92.4483 26.8717 92.8468 27.2282C93.2383 27.5847 94.2592 27.9505 95.9109 28.3247C97.5627 28.699 98.6959 29.0264 99.3104 29.306C100.204 29.7187 100.864 30.2417 101.29 30.875C101.717 31.5083 101.929 32.2369 101.929 33.0631C101.929 33.8892 101.695 34.6527 101.227 35.3764C100.759 36.1 100.087 36.6636 99.2102 37.0656C98.3335 37.4676 97.3475 37.669 96.2505 37.669C94.8609 37.669 93.6958 37.4662 92.7566 37.0606C91.8174 36.655 91.0807 36.0445 90.5464 35.2298C90.0122 34.415 89.7308 33.4936 89.7031 32.4646L89.7038 32.4661Z" fill="white"/>
<path d="M108.579 35.7187L108.851 37.3873C108.321 37.499 107.845 37.5552 107.427 37.5552C106.743 37.5552 106.211 37.4471 105.835 37.23C105.458 37.013 105.193 36.7284 105.038 36.3747C104.885 36.0218 104.808 35.2782 104.808 34.1454V27.7342H103.426V26.2655H104.808V23.5061L106.684 22.3726V26.2655H108.58V27.7342H106.684V34.25C106.684 34.7887 106.717 35.1352 106.783 35.2889C106.849 35.4426 106.958 35.565 107.108 35.6561C107.258 35.7471 107.473 35.7927 107.752 35.7927C107.962 35.7927 108.238 35.7685 108.58 35.7194L108.579 35.7187Z" fill="white"/>
<path d="M109.719 31.8366C109.719 29.7731 110.292 28.2447 111.437 27.2513C112.394 26.4259 113.56 26.0132 114.936 26.0132C116.466 26.0132 117.716 26.5148 118.687 27.5189C119.657 28.5229 120.143 29.9097 120.143 31.6794C120.143 33.1132 119.928 34.241 119.499 35.0636C119.069 35.8861 118.444 36.5237 117.623 36.9784C116.803 37.4331 115.907 37.6601 114.936 37.6601C113.379 37.6601 112.12 37.1598 111.16 36.1594C110.199 35.1589 109.719 33.718 109.719 31.8366H109.719ZM111.658 31.8366C111.658 33.2633 111.968 34.3321 112.59 35.0422C113.211 35.7524 113.993 36.1074 114.936 36.1074C115.879 36.1074 116.651 35.751 117.272 35.0373C117.894 34.3236 118.204 33.2363 118.204 31.774C118.204 30.3957 117.892 29.3518 117.266 28.6417C116.641 27.9316 115.865 27.5765 114.936 27.5765C114.006 27.5765 113.211 27.9294 112.589 28.636C111.967 29.3426 111.657 30.4092 111.657 31.8359L111.658 31.8366Z" fill="white"/>
<path d="M122.336 37.4082V26.2651H124.033V27.9543C124.466 27.1638 124.866 26.6429 125.232 26.391C125.599 26.1391 126.003 26.0132 126.442 26.0132C127.078 26.0132 127.724 26.216 128.38 26.6216L127.731 28.3742C127.27 28.1016 126.809 27.965 126.348 27.965C125.936 27.965 125.566 28.0888 125.238 28.3372C124.91 28.5855 124.676 28.9299 124.536 29.3703C124.327 30.0421 124.222 30.7764 124.222 31.5741V37.4082H122.337H122.336Z" fill="white"/>
<path d="M137.113 33.8195L139.061 34.0608C138.754 35.2007 138.185 36.0859 137.353 36.7156C136.522 37.3453 135.461 37.6599 134.168 37.6599C132.541 37.6599 131.251 37.1582 130.297 36.1542C129.344 35.1502 128.867 33.7427 128.867 31.931C128.867 30.1194 129.349 28.6016 130.313 27.5663C131.277 26.531 132.527 26.0137 134.063 26.0137C135.6 26.0137 136.766 26.521 137.709 27.535C138.652 28.549 139.124 29.9764 139.124 31.8158C139.124 31.9275 139.12 32.0954 139.113 32.3196H130.816C130.886 33.5435 131.232 34.4813 131.853 35.1317C132.475 35.782 133.25 36.1072 134.179 36.1072C134.87 36.1072 135.461 35.9251 135.95 35.5615C136.438 35.1978 136.826 34.6172 137.113 33.8195ZM130.921 30.7662H137.133C137.049 29.8291 136.812 29.1261 136.421 28.6571C135.82 27.9299 135.041 27.5656 134.085 27.5656C133.219 27.5656 132.49 27.8559 131.9 28.4365C131.31 29.0172 130.984 29.7935 130.92 30.7662H130.921Z" fill="white"/>
<path d="M44.5703 19.9129V11.3862H47.503C48.1651 11.3862 48.6703 11.4268 49.0184 11.5086C49.5064 11.621 49.9221 11.8246 50.2666 12.1191C50.7156 12.4991 51.0517 12.9851 51.274 13.5764C51.4964 14.1677 51.6079 14.8437 51.6079 15.6037C51.6079 16.2512 51.5326 16.8254 51.3813 17.325C51.23 17.8252 51.0367 18.2393 50.8009 18.5666C50.565 18.894 50.3064 19.1523 50.0258 19.3401C49.7452 19.528 49.4063 19.671 49.0098 19.7678C48.6127 19.8645 48.1573 19.9129 47.6423 19.9129H44.5703ZM45.6971 18.9068H47.5144C48.0756 18.9068 48.5161 18.8541 48.8358 18.7495C49.1555 18.6449 49.4098 18.4976 49.5995 18.3076C49.8666 18.0401 50.0748 17.6807 50.224 17.2289C50.3732 16.777 50.4478 16.2291 50.4478 15.5859C50.4478 14.6943 50.3014 14.0083 50.0094 13.5295C49.7174 13.0506 49.3622 12.7297 48.9438 12.5667C48.6418 12.4507 48.1559 12.3924 47.486 12.3924H45.6971V18.9068Z" fill="white"/>
<path d="M52.6374 16.8246C52.6374 15.6804 52.955 14.8336 53.5901 14.2829C54.1208 13.8253 54.7673 13.5962 55.5296 13.5962C56.3772 13.5962 57.0706 13.8744 57.6084 14.4309C58.1462 14.9873 58.4154 15.7558 58.4154 16.737C58.4154 17.5319 58.2961 18.1573 58.0581 18.6127C57.8201 19.0681 57.4734 19.4225 57.0187 19.6744C56.564 19.9263 56.0674 20.0522 55.5289 20.0522C54.6657 20.0522 53.9681 19.7747 53.4353 19.2204C52.9031 18.6661 52.6367 17.867 52.6367 16.8239L52.6374 16.8246ZM53.7123 16.8246C53.7123 17.6158 53.8843 18.2078 54.2288 18.6013C54.5734 18.9948 55.0067 19.1919 55.5296 19.1919C56.0525 19.1919 56.4802 18.9941 56.8248 18.5985C57.1693 18.2029 57.3413 17.6002 57.3413 16.7897C57.3413 16.0255 57.1679 15.447 56.8212 15.0535C56.4745 14.66 56.044 14.4629 55.5289 14.4629C55.0139 14.4629 54.5727 14.6586 54.2281 15.0506C53.8835 15.4427 53.7116 16.0333 53.7116 16.8246H53.7123Z" fill="white"/>
<path d="M60.7783 19.9124L58.8906 13.7354H59.9705L60.9516 17.301L61.3175 18.6274C61.3331 18.5612 61.4397 18.1371 61.6372 17.3537L62.6183 13.7361H63.6925L64.6161 17.3188L64.9237 18.4993L65.2782 17.3067L66.3353 13.7354H67.3512L65.4231 19.9124H64.3369L63.3557 16.213L63.1177 15.1606L61.8695 19.9124H60.7776H60.7783Z" fill="white"/>
<path d="M68.2305 19.9128V13.7357H69.1711V14.6137C69.6244 13.9349 70.2787 13.5962 71.134 13.5962C71.5056 13.5962 71.8473 13.6631 72.1592 13.7969C72.4711 13.9306 72.7041 14.1064 72.859 14.3234C73.0139 14.5404 73.1226 14.7987 73.1844 15.0969C73.2227 15.2904 73.2426 15.6298 73.2426 16.1144V19.9128H72.1976V16.1557C72.1976 15.7295 72.1571 15.41 72.0754 15.1986C71.9944 14.9873 71.8502 14.8187 71.6427 14.6927C71.4353 14.5668 71.193 14.5034 70.9138 14.5034C70.4684 14.5034 70.084 14.645 69.7608 14.9282C69.4375 15.2114 69.2755 15.7487 69.2755 16.5392V19.9128H68.2305Z" fill="white"/>
<path d="M74.8203 19.9124V11.3857H75.8654V19.9124H74.8203Z" fill="white"/>
<path d="M77.0945 16.8246C77.0945 15.6804 77.412 14.8336 78.0472 14.2829C78.5779 13.8253 79.2244 13.5962 79.9867 13.5962C80.8342 13.5962 81.5276 13.8744 82.0654 14.4309C82.6032 14.9873 82.8725 15.7558 82.8725 16.737C82.8725 17.5319 82.7531 18.1573 82.5151 18.6127C82.2771 19.0681 81.9304 19.4225 81.4757 19.6744C81.0211 19.9263 80.5245 20.0522 79.986 20.0522C79.1228 20.0522 78.4251 19.7747 77.8923 19.2204C77.3602 18.6661 77.0938 17.867 77.0938 16.8239L77.0945 16.8246ZM78.1694 16.8246C78.1694 17.6158 78.3413 18.2078 78.6858 18.6013C79.0304 18.9948 79.4638 19.1919 79.9867 19.1919C80.5095 19.1919 80.9372 18.9941 81.2818 18.5985C81.6264 18.2029 81.7983 17.6002 81.7983 16.7897C81.7983 16.0255 81.6249 15.447 81.2782 15.0535C80.9315 14.66 80.501 14.4629 79.986 14.4629C79.4709 14.4629 79.0297 14.6586 78.6851 15.0506C78.3406 15.442 78.1686 16.0333 78.1686 16.8246H78.1694Z" fill="white"/>
<path d="M88.1213 19.1506C87.7341 19.4801 87.3619 19.7128 87.0031 19.8487C86.645 19.9846 86.2607 20.0522 85.8501 20.0522C85.1723 20.0522 84.6515 19.8864 84.2878 19.5548C83.9241 19.2232 83.7422 18.7998 83.7422 18.2839C83.7422 17.9815 83.8111 17.7054 83.9482 17.455C84.0853 17.2052 84.2658 17.0045 84.4881 16.853C84.7105 16.7014 84.9613 16.5876 85.2405 16.51C85.4458 16.4559 85.7556 16.4033 86.1698 16.3528C87.0138 16.2517 87.6354 16.1315 88.0339 15.992C88.0375 15.8483 88.0396 15.7572 88.0396 15.7187C88.0396 15.2925 87.9409 14.9915 87.7434 14.8172C87.4763 14.581 87.0791 14.4621 86.5527 14.4621C86.0611 14.4621 85.698 14.5482 85.4636 14.7211C85.2291 14.8933 85.0558 15.1993 84.9435 15.6369L83.9212 15.4975C84.0143 15.0591 84.167 14.7055 84.3802 14.4358C84.5933 14.1661 84.9009 13.959 85.3037 13.8132C85.7066 13.668 86.1726 13.5947 86.7033 13.5947C87.234 13.5947 87.6574 13.6566 87.9864 13.7812C88.3153 13.905 88.5575 14.0615 88.7124 14.2494C88.8673 14.4372 88.976 14.6749 89.0378 14.9616C89.0726 15.1402 89.0904 15.4619 89.0904 15.9272V17.3233C89.0904 18.2967 89.1124 18.9123 89.1572 19.1698C89.2019 19.4274 89.29 19.675 89.4214 19.9113H88.3295C88.2208 19.6943 88.1512 19.4402 88.1206 19.1492L88.1213 19.1506ZM88.0339 16.8124C87.6546 16.9675 87.0855 17.0992 86.3268 17.2081C85.897 17.27 85.5929 17.3397 85.4153 17.4173C85.2369 17.4948 85.0998 17.608 85.0032 17.7574C84.9066 17.9068 84.8583 18.0726 84.8583 18.2548C84.8583 18.5337 84.9641 18.7664 85.1744 18.9528C85.3854 19.1392 85.6945 19.2317 86.1008 19.2317C86.5072 19.2317 86.8617 19.1435 87.175 18.967C87.4883 18.7906 87.7192 18.5494 87.8663 18.2427C87.9785 18.0064 88.0347 17.6571 88.0347 17.196V16.8124H88.0339Z" fill="white"/>
<path d="M94.7151 19.9126V19.1335C94.3243 19.7461 93.7489 20.0521 92.9901 20.0521C92.4985 20.0521 92.0467 19.9162 91.6339 19.6451C91.2219 19.374 90.9022 18.9947 90.6755 18.508C90.4489 18.0213 90.3359 17.462 90.3359 16.8301C90.3359 16.1983 90.4382 15.6539 90.6436 15.1523C90.8489 14.6499 91.1565 14.265 91.5671 13.9974C91.9778 13.7299 92.436 13.5961 92.9433 13.5961C93.3148 13.5961 93.6459 13.6744 93.9364 13.8316C94.227 13.9889 94.4629 14.1931 94.6448 14.445V11.3853H95.6841V19.9119H94.7144L94.7151 19.9126ZM91.4108 16.8301C91.4108 17.6214 91.5771 18.2127 91.9103 18.6041C92.2435 18.9954 92.6363 19.1918 93.0889 19.1918C93.5414 19.1918 93.9336 19.0047 94.2533 18.6304C94.573 18.2561 94.7321 17.6854 94.7321 16.9177C94.7321 16.0723 94.5694 15.4518 94.2441 15.0562C93.9187 14.6606 93.518 14.4628 93.042 14.4628C92.566 14.4628 92.1895 14.6528 91.8776 15.0327C91.5657 15.4127 91.4101 16.0118 91.4101 16.8301H91.4108Z" fill="white"/>
<path d="M100.243 16.8246C100.243 15.6804 100.56 14.8336 101.196 14.2829C101.726 13.8253 102.373 13.5962 103.135 13.5962C103.983 13.5962 104.676 13.8744 105.214 14.4309C105.752 14.9873 106.021 15.7558 106.021 16.737C106.021 17.5319 105.902 18.1573 105.664 18.6127C105.426 19.0681 105.079 19.4225 104.624 19.6744C104.169 19.9263 103.673 20.0522 103.134 20.0522C102.271 20.0522 101.574 19.7747 101.041 19.2204C100.509 18.6661 100.242 17.867 100.242 16.8239L100.243 16.8246ZM101.317 16.8246C101.317 17.6158 101.49 18.2078 101.834 18.6013C102.177 18.9948 102.612 19.1919 103.134 19.1919C103.657 19.1919 104.085 18.9941 104.43 18.5985C104.774 18.2029 104.946 17.6002 104.946 16.7897C104.946 16.0255 104.773 15.447 104.426 15.0535C104.079 14.66 103.649 14.4629 103.134 14.4629C102.619 14.4629 102.177 14.6586 101.833 15.0506C101.488 15.4427 101.316 16.0333 101.316 16.8246H101.317Z" fill="white"/>
<path d="M107.246 19.9128V13.7357H108.187V14.6137C108.64 13.9349 109.294 13.5962 110.15 13.5962C110.521 13.5962 110.863 13.6631 111.175 13.7969C111.487 13.9306 111.72 14.1064 111.875 14.3234C112.029 14.5404 112.138 14.7987 112.2 15.0969C112.239 15.2904 112.258 15.6298 112.258 16.1144V19.9128H111.213V16.1557C111.213 15.7295 111.173 15.41 111.091 15.1986C111.01 14.9873 110.866 14.8187 110.658 14.6927C110.451 14.5668 110.209 14.5034 109.929 14.5034C109.484 14.5034 109.1 14.645 108.776 14.9282C108.453 15.2114 108.291 15.7487 108.291 16.5392V19.9128H107.246Z" fill="white"/>
<path d="M119.45 18.976L119.602 19.9011C119.308 19.963 119.044 19.9943 118.812 19.9943C118.432 19.9943 118.138 19.9345 117.929 19.8143C117.721 19.694 117.573 19.536 117.488 19.3404C117.403 19.1447 117.36 18.7327 117.36 18.1044V14.5508H116.594V13.7368H117.36V12.2069L118.4 11.5786V13.7368H119.45V14.5508H118.4V18.1627C118.4 18.4616 118.418 18.653 118.455 18.7384C118.492 18.8238 118.552 18.8914 118.635 18.9419C118.718 18.9924 118.837 19.0173 118.992 19.0173C119.108 19.0173 119.261 19.0038 119.451 18.9768L119.45 18.976Z" fill="white"/>
<path d="M120.469 19.9124V11.3857H121.514V14.4455C122.002 13.8791 122.617 13.5966 123.36 13.5966C123.817 13.5966 124.214 13.6869 124.551 13.867C124.888 14.047 125.129 14.2968 125.274 14.6141C125.419 14.9322 125.492 15.3933 125.492 15.9981V19.9124H124.447V15.9981C124.447 15.4744 124.334 15.0937 124.108 14.8553C123.881 14.617 123.561 14.4974 123.146 14.4974C122.837 14.4974 122.545 14.5778 122.273 14.7386C122 14.8995 121.805 15.1179 121.689 15.3933C121.573 15.6687 121.515 16.0486 121.515 16.5332V19.9124H120.47H120.469Z" fill="white"/>
<path d="M131.305 17.9237L132.384 18.0575C132.214 18.6894 131.899 19.1803 131.438 19.529C130.978 19.8777 130.389 20.0527 129.673 20.0527C128.77 20.0527 128.056 19.7745 127.527 19.218C126.999 18.6616 126.734 17.881 126.734 16.877C126.734 15.873 127.001 15.0312 127.536 14.4577C128.07 13.8842 128.763 13.5967 129.614 13.5967C130.466 13.5967 131.113 13.8777 131.636 14.4399C132.159 15.002 132.419 15.7933 132.419 16.813C132.419 16.8749 132.417 16.9681 132.414 17.0919H127.814C127.853 17.7707 128.044 18.2902 128.389 18.6509C128.734 19.0117 129.163 19.1917 129.678 19.1917C130.061 19.1917 130.389 19.0907 130.66 18.8893C130.93 18.6879 131.145 18.3656 131.304 17.9237H131.305ZM127.872 16.2309H131.316C131.27 15.7115 131.138 15.3215 130.921 15.0618C130.588 14.6583 130.157 14.457 129.626 14.457C129.146 14.457 128.742 14.6178 128.415 14.9394C128.088 15.261 127.907 15.6915 127.872 16.2309Z" fill="white"/>
</svg>
